<mxfile host="Electron" agent="Mozilla/5.0 (X11; Linux x86_64) AppleWebKit/537.36 (KHTML, like Gecko) draw.io/28.0.6 Chrome/138.0.7204.100 Electron/37.2.3 Safari/537.36" version="28.0.6" pages="5">
  <diagram name="Page-1" id="ZvNH7lXup49fy9RbwnGT">
    <mxGraphModel dx="10291" dy="3437" grid="1" gridSize="10" guides="1" tooltips="1" connect="1" arrows="1" fold="1" page="0" pageScale="1" pageWidth="850" pageHeight="1100" math="0" shadow="0">
      <root>
        <mxCell id="0" />
        <mxCell id="1" parent="0" />
        <mxCell id="o17EKEYWWQqzqoGE3UeF-24" value="" style="rounded=1;whiteSpace=wrap;html=1;arcSize=2;" vertex="1" parent="1">
          <mxGeometry x="-1762" y="1200" width="3672.5" height="3110" as="geometry" />
        </mxCell>
        <mxCell id="o17EKEYWWQqzqoGE3UeF-42" value="" style="rounded=1;whiteSpace=wrap;html=1;arcSize=3;" vertex="1" parent="1">
          <mxGeometry x="-1080" y="2040" width="2922.5" height="2010" as="geometry" />
        </mxCell>
        <mxCell id="o17EKEYWWQqzqoGE3UeF-1" value="" style="rounded=1;whiteSpace=wrap;html=1;fillColor=#dae8fc;strokeColor=#6c8ebf;" vertex="1" parent="1">
          <mxGeometry x="-1752" y="148" width="3640" height="343" as="geometry" />
        </mxCell>
        <mxCell id="o17EKEYWWQqzqoGE3UeF-2" value="&lt;font style=&quot;font-size: 36px;&quot;&gt;User Interface Layer&lt;/font&gt;" style="text;html=1;align=center;verticalAlign=middle;whiteSpace=wrap;rounded=0;" vertex="1" parent="1">
          <mxGeometry x="-134" y="178" width="414" height="46" as="geometry" />
        </mxCell>
        <mxCell id="o17EKEYWWQqzqoGE3UeF-4" value="&lt;font style=&quot;font-size: 24px;&quot;&gt;Tauri Desktop UI&lt;/font&gt;" style="rounded=1;whiteSpace=wrap;html=1;fillColor=#d5e8d4;strokeColor=#82b366;" vertex="1" parent="1">
          <mxGeometry x="-1700" y="251" width="315" height="198" as="geometry" />
        </mxCell>
        <mxCell id="o17EKEYWWQqzqoGE3UeF-5" value="&lt;font style=&quot;font-size: 24px;&quot;&gt;CLI Interface&lt;/font&gt;" style="rounded=1;whiteSpace=wrap;html=1;fillColor=#d5e8d4;strokeColor=#82b366;" vertex="1" parent="1">
          <mxGeometry x="-1020" y="251" width="315" height="198" as="geometry" />
        </mxCell>
        <mxCell id="o17EKEYWWQqzqoGE3UeF-6" value="&lt;font style=&quot;font-size: 24px;&quot;&gt;System Tray&lt;/font&gt;" style="rounded=1;whiteSpace=wrap;html=1;fillColor=#d5e8d4;strokeColor=#82b366;" vertex="1" parent="1">
          <mxGeometry x="-89.5" y="251" width="315" height="198" as="geometry" />
        </mxCell>
        <mxCell id="o17EKEYWWQqzqoGE3UeF-7" value="&lt;font style=&quot;font-size: 24px;&quot;&gt;Hotkey Handler&lt;/font&gt;" style="rounded=1;whiteSpace=wrap;html=1;fillColor=#d5e8d4;strokeColor=#82b366;" vertex="1" parent="1">
          <mxGeometry x="540" y="251" width="315" height="198" as="geometry" />
        </mxCell>
        <mxCell id="o17EKEYWWQqzqoGE3UeF-8" value="&lt;font style=&quot;font-size: 24px;&quot;&gt;Notification&lt;/font&gt;" style="rounded=1;whiteSpace=wrap;html=1;fillColor=#d5e8d4;strokeColor=#82b366;" vertex="1" parent="1">
          <mxGeometry x="1290" y="240" width="315" height="198" as="geometry" />
        </mxCell>
        <mxCell id="o17EKEYWWQqzqoGE3UeF-9" value="" style="rounded=1;whiteSpace=wrap;html=1;fillColor=#b1ddf0;strokeColor=#10739e;" vertex="1" parent="1">
          <mxGeometry x="-1760" y="640" width="3660" height="343" as="geometry" />
        </mxCell>
        <mxCell id="o17EKEYWWQqzqoGE3UeF-10" value="&lt;font style=&quot;font-size: 36px;&quot;&gt;FastAPI Gateway router&lt;/font&gt;" style="text;html=1;align=center;verticalAlign=middle;whiteSpace=wrap;rounded=0;" vertex="1" parent="1">
          <mxGeometry x="-132.75" y="670" width="414" height="46" as="geometry" />
        </mxCell>
        <mxCell id="o17EKEYWWQqzqoGE3UeF-11" value="&lt;font style=&quot;font-size: 24px;&quot;&gt;Katalepsis Monitor&lt;/font&gt;&lt;div&gt;&lt;span style=&quot;font-size: 24px;&quot;&gt;(Singleton)&lt;/span&gt;&lt;/div&gt;" style="rounded=1;whiteSpace=wrap;html=1;fillColor=#d0cee2;strokeColor=#56517e;" vertex="1" parent="1">
          <mxGeometry x="-1700" y="750" width="315" height="198" as="geometry" />
        </mxCell>
        <mxCell id="o17EKEYWWQqzqoGE3UeF-12" value="&lt;span style=&quot;font-size: 24px;&quot;&gt;BackgroundTask&lt;/span&gt;" style="rounded=1;whiteSpace=wrap;html=1;fillColor=#d0cee2;strokeColor=#56517e;" vertex="1" parent="1">
          <mxGeometry x="-150" y="750" width="315" height="198" as="geometry" />
        </mxCell>
        <mxCell id="o17EKEYWWQqzqoGE3UeF-13" value="&lt;span style=&quot;font-size: 24px;&quot;&gt;WebSocket&lt;/span&gt;" style="rounded=1;whiteSpace=wrap;html=1;fillColor=#d0cee2;strokeColor=#56517e;" vertex="1" parent="1">
          <mxGeometry x="1460" y="740" width="315" height="198" as="geometry" />
        </mxCell>
        <mxCell id="o17EKEYWWQqzqoGE3UeF-15" value="" style="endArrow=classic;html=1;rounded=0;exitX=0.5;exitY=1;exitDx=0;exitDy=0;entryX=0.5;entryY=0;entryDx=0;entryDy=0;" edge="1" parent="1" source="o17EKEYWWQqzqoGE3UeF-1" target="o17EKEYWWQqzqoGE3UeF-9">
          <mxGeometry width="50" height="50" relative="1" as="geometry">
            <mxPoint x="560" y="620" as="sourcePoint" />
            <mxPoint x="480" y="640" as="targetPoint" />
          </mxGeometry>
        </mxCell>
        <mxCell id="o17EKEYWWQqzqoGE3UeF-62" style="edgeStyle=orthogonalEdgeStyle;rounded=0;orthogonalLoop=1;jettySize=auto;html=1;entryX=1;entryY=0.25;entryDx=0;entryDy=0;exitX=0.5;exitY=0;exitDx=0;exitDy=0;" edge="1" parent="1">
          <mxGeometry relative="1" as="geometry">
            <mxPoint x="729.5" y="2239.89" as="sourcePoint" />
            <mxPoint x="-350.5" y="1602.39" as="targetPoint" />
            <Array as="points">
              <mxPoint x="709.5" y="2239.89" />
              <mxPoint x="709.5" y="1602.89" />
            </Array>
          </mxGeometry>
        </mxCell>
        <mxCell id="o17EKEYWWQqzqoGE3UeF-16" value="&lt;font style=&quot;font-size: 24px;&quot;&gt;Vault Manager&lt;/font&gt;" style="rounded=1;whiteSpace=wrap;html=1;fillColor=#d80073;strokeColor=#A50040;fontColor=#ffffff;" vertex="1" parent="1">
          <mxGeometry x="490" y="2240" width="440" height="180" as="geometry" />
        </mxCell>
        <mxCell id="o17EKEYWWQqzqoGE3UeF-17" value="" style="rounded=1;whiteSpace=wrap;html=1;fillColor=#cce5ff;strokeColor=#36393d;" vertex="1" parent="1">
          <mxGeometry x="2740" y="1160" width="1750" height="560" as="geometry" />
        </mxCell>
        <mxCell id="o17EKEYWWQqzqoGE3UeF-18" value="&lt;font style=&quot;font-size: 36px;&quot;&gt;Hegemonikon&lt;/font&gt;&lt;div&gt;&lt;font style=&quot;font-size: 36px;&quot;&gt;C++ Backend&lt;/font&gt;&lt;/div&gt;" style="text;html=1;align=center;verticalAlign=middle;whiteSpace=wrap;rounded=0;" vertex="1" parent="1">
          <mxGeometry x="3370" y="1170" width="570" height="100" as="geometry" />
        </mxCell>
        <mxCell id="o17EKEYWWQqzqoGE3UeF-71" style="edgeStyle=orthogonalEdgeStyle;rounded=0;orthogonalLoop=1;jettySize=auto;html=1;entryX=0.75;entryY=0;entryDx=0;entryDy=0;" edge="1" parent="1" source="o17EKEYWWQqzqoGE3UeF-19" target="o17EKEYWWQqzqoGE3UeF-16">
          <mxGeometry relative="1" as="geometry" />
        </mxCell>
        <mxCell id="o17EKEYWWQqzqoGE3UeF-19" value="&lt;font style=&quot;font-size: 24px;&quot;&gt;Advanced C++ Memory locking&lt;/font&gt;&lt;div&gt;&lt;font style=&quot;font-size: 24px;&quot;&gt;(SecureString, SecureKey, Argon2)&lt;/font&gt;&lt;/div&gt;" style="rounded=1;whiteSpace=wrap;html=1;fillColor=#ffcc99;strokeColor=#36393d;" vertex="1" parent="1">
          <mxGeometry x="2780" y="1420" width="490" height="270" as="geometry" />
        </mxCell>
        <mxCell id="o17EKEYWWQqzqoGE3UeF-72" style="edgeStyle=orthogonalEdgeStyle;rounded=0;orthogonalLoop=1;jettySize=auto;html=1;entryX=1;entryY=0.5;entryDx=0;entryDy=0;exitX=0.5;exitY=1;exitDx=0;exitDy=0;" edge="1" parent="1" source="o17EKEYWWQqzqoGE3UeF-20" target="o17EKEYWWQqzqoGE3UeF-28">
          <mxGeometry relative="1" as="geometry" />
        </mxCell>
        <mxCell id="o17EKEYWWQqzqoGE3UeF-20" value="&lt;span style=&quot;font-size: 24px;&quot;&gt;CoreAIService&amp;nbsp;&lt;/span&gt;&lt;div&gt;&lt;span style=&quot;font-size: 24px;&quot;&gt;(Llama.cpp, whisper.cpp)&lt;/span&gt;&lt;/div&gt;" style="rounded=1;whiteSpace=wrap;html=1;fillColor=#ffcc99;strokeColor=#36393d;" vertex="1" parent="1">
          <mxGeometry x="3340" y="1410" width="490" height="270" as="geometry" />
        </mxCell>
        <mxCell id="o17EKEYWWQqzqoGE3UeF-73" style="edgeStyle=orthogonalEdgeStyle;rounded=0;orthogonalLoop=1;jettySize=auto;html=1;entryX=1;entryY=0.5;entryDx=0;entryDy=0;exitX=0.5;exitY=1;exitDx=0;exitDy=0;" edge="1" parent="1" source="o17EKEYWWQqzqoGE3UeF-21" target="o17EKEYWWQqzqoGE3UeF-29">
          <mxGeometry relative="1" as="geometry" />
        </mxCell>
        <mxCell id="o17EKEYWWQqzqoGE3UeF-21" value="&lt;span style=&quot;font-size: 24px;&quot;&gt;Benchmarker&lt;/span&gt;" style="rounded=1;whiteSpace=wrap;html=1;fillColor=#ffcc99;strokeColor=#36393d;" vertex="1" parent="1">
          <mxGeometry x="3940" y="1410" width="490" height="270" as="geometry" />
        </mxCell>
        <mxCell id="o17EKEYWWQqzqoGE3UeF-23" value="&lt;font style=&quot;font-size: 36px;&quot;&gt;AtaraxAI Orchestrator&lt;/font&gt;" style="rounded=1;whiteSpace=wrap;html=1;" vertex="1" parent="1">
          <mxGeometry x="-940" y="1540" width="570" height="250" as="geometry" />
        </mxCell>
        <mxCell id="o17EKEYWWQqzqoGE3UeF-25" value="&lt;font style=&quot;font-size: 36px;&quot;&gt;Praxis&amp;nbsp;&lt;/font&gt;&lt;div&gt;&lt;font style=&quot;font-size: 36px;&quot;&gt;Python Backend&lt;/font&gt;&lt;/div&gt;" style="text;html=1;align=center;verticalAlign=middle;whiteSpace=wrap;rounded=0;" vertex="1" parent="1">
          <mxGeometry x="-750" y="1232" width="1479.5" height="103" as="geometry" />
        </mxCell>
        <mxCell id="o17EKEYWWQqzqoGE3UeF-26" value="&lt;font style=&quot;font-size: 24px;&quot;&gt;Pubind11&lt;/font&gt;" style="rounded=1;whiteSpace=wrap;html=1;" vertex="1" parent="1">
          <mxGeometry x="2130" y="1335" width="370" height="210" as="geometry" />
        </mxCell>
        <mxCell id="o17EKEYWWQqzqoGE3UeF-27" value="" style="endArrow=classic;html=1;rounded=0;exitX=0;exitY=0.5;exitDx=0;exitDy=0;entryX=1;entryY=0.5;entryDx=0;entryDy=0;" edge="1" parent="1" source="o17EKEYWWQqzqoGE3UeF-17" target="o17EKEYWWQqzqoGE3UeF-26">
          <mxGeometry width="50" height="50" relative="1" as="geometry">
            <mxPoint x="2480" y="1330" as="sourcePoint" />
            <mxPoint x="2530" y="1280" as="targetPoint" />
          </mxGeometry>
        </mxCell>
        <mxCell id="o17EKEYWWQqzqoGE3UeF-67" style="edgeStyle=orthogonalEdgeStyle;rounded=0;orthogonalLoop=1;jettySize=auto;html=1;exitX=0;exitY=0.5;exitDx=0;exitDy=0;" edge="1" parent="1" source="o17EKEYWWQqzqoGE3UeF-28" target="o17EKEYWWQqzqoGE3UeF-58">
          <mxGeometry relative="1" as="geometry" />
        </mxCell>
        <mxCell id="o17EKEYWWQqzqoGE3UeF-28" value="&lt;font style=&quot;font-size: 24px;&quot;&gt;CoreAIServiceManager&lt;/font&gt;" style="rounded=1;whiteSpace=wrap;html=1;" vertex="1" parent="1">
          <mxGeometry x="490" y="3401" width="440" height="180" as="geometry" />
        </mxCell>
        <mxCell id="o17EKEYWWQqzqoGE3UeF-29" value="&lt;font style=&quot;font-size: 24px;&quot;&gt;BenchmarkerManager&lt;/font&gt;" style="rounded=1;whiteSpace=wrap;html=1;" vertex="1" parent="1">
          <mxGeometry x="1262.5" y="3690" width="440" height="180" as="geometry" />
        </mxCell>
        <mxCell id="o17EKEYWWQqzqoGE3UeF-30" value="&lt;font style=&quot;font-size: 24px;&quot;&gt;AppDirectories&lt;/font&gt;" style="rounded=1;whiteSpace=wrap;html=1;" vertex="1" parent="1">
          <mxGeometry x="1262.5" y="2520" width="425" height="180" as="geometry" />
        </mxCell>
        <mxCell id="o17EKEYWWQqzqoGE3UeF-31" value="&lt;font style=&quot;font-size: 24px;&quot;&gt;AppConfig&lt;/font&gt;" style="rounded=1;whiteSpace=wrap;html=1;" vertex="1" parent="1">
          <mxGeometry x="1262.5" y="2240" width="425" height="180" as="geometry" />
        </mxCell>
        <mxCell id="o17EKEYWWQqzqoGE3UeF-33" value="&lt;font style=&quot;font-size: 24px;&quot;&gt;SetupManager&lt;/font&gt;" style="rounded=1;whiteSpace=wrap;html=1;" vertex="1" parent="1">
          <mxGeometry x="-1680" y="1800" width="425" height="180" as="geometry" />
        </mxCell>
        <mxCell id="o17EKEYWWQqzqoGE3UeF-34" value="&lt;font style=&quot;font-size: 24px;&quot;&gt;ChatManager&lt;/font&gt;" style="rounded=1;whiteSpace=wrap;html=1;" vertex="1" parent="1">
          <mxGeometry x="490" y="2840" width="425" height="180" as="geometry" />
        </mxCell>
        <mxCell id="o17EKEYWWQqzqoGE3UeF-35" value="&lt;font style=&quot;font-size: 24px;&quot;&gt;ConfigurationManager&lt;/font&gt;" style="rounded=1;whiteSpace=wrap;html=1;" vertex="1" parent="1">
          <mxGeometry x="1262.5" y="3120" width="425" height="180" as="geometry" />
        </mxCell>
        <mxCell id="o17EKEYWWQqzqoGE3UeF-36" value="&lt;font style=&quot;font-size: 24px;&quot;&gt;AtaraxAILogger&lt;/font&gt;" style="rounded=1;whiteSpace=wrap;html=1;" vertex="1" parent="1">
          <mxGeometry x="1262.5" y="2840" width="425" height="180" as="geometry" />
        </mxCell>
        <mxCell id="o17EKEYWWQqzqoGE3UeF-70" style="edgeStyle=orthogonalEdgeStyle;rounded=0;orthogonalLoop=1;jettySize=auto;html=1;" edge="1" parent="1" source="o17EKEYWWQqzqoGE3UeF-38" target="o17EKEYWWQqzqoGE3UeF-58">
          <mxGeometry relative="1" as="geometry" />
        </mxCell>
        <mxCell id="o17EKEYWWQqzqoGE3UeF-38" value="&lt;font style=&quot;font-size: 24px;&quot;&gt;ChatContextManager&lt;/font&gt;" style="rounded=1;whiteSpace=wrap;html=1;" vertex="1" parent="1">
          <mxGeometry x="490" y="3120" width="425" height="180" as="geometry" />
        </mxCell>
        <mxCell id="o17EKEYWWQqzqoGE3UeF-43" value="&lt;font style=&quot;font-size: 36px;&quot;&gt;Services&lt;/font&gt;" style="text;html=1;align=center;verticalAlign=middle;whiteSpace=wrap;rounded=0;" vertex="1" parent="1">
          <mxGeometry x="241.25" y="2090" width="280" height="50" as="geometry" />
        </mxCell>
        <mxCell id="o17EKEYWWQqzqoGE3UeF-45" value="&lt;font style=&quot;font-size: 24px;&quot;&gt;ModelsManager&lt;/font&gt;&lt;div&gt;&lt;span style=&quot;font-size: 24px;&quot;&gt;&lt;i&gt;Manage Local Models and download from HF&lt;/i&gt;&lt;/span&gt;&lt;/div&gt;" style="rounded=1;whiteSpace=wrap;html=1;fillColor=#a20025;fontColor=#ffffff;strokeColor=#6F0000;" vertex="1" parent="1">
          <mxGeometry x="490" y="2540" width="480" height="180" as="geometry" />
        </mxCell>
        <mxCell id="o17EKEYWWQqzqoGE3UeF-46" value="&lt;font style=&quot;font-size: 24px;&quot;&gt;AppSettings&lt;/font&gt;" style="rounded=1;whiteSpace=wrap;html=1;" vertex="1" parent="1">
          <mxGeometry x="-1690" y="1360" width="425" height="180" as="geometry" />
        </mxCell>
        <mxCell id="o17EKEYWWQqzqoGE3UeF-47" value="" style="endArrow=classic;html=1;rounded=0;entryX=1;entryY=0.5;entryDx=0;entryDy=0;exitX=0.5;exitY=0;exitDx=0;exitDy=0;" edge="1" parent="1" source="o17EKEYWWQqzqoGE3UeF-42" target="o17EKEYWWQqzqoGE3UeF-23">
          <mxGeometry width="50" height="50" relative="1" as="geometry">
            <mxPoint x="500" y="1730" as="sourcePoint" />
            <mxPoint x="550" y="1680" as="targetPoint" />
            <Array as="points">
              <mxPoint x="381" y="1665" />
            </Array>
          </mxGeometry>
        </mxCell>
        <mxCell id="o17EKEYWWQqzqoGE3UeF-50" value="" style="endArrow=classic;html=1;rounded=0;exitX=1;exitY=0.5;exitDx=0;exitDy=0;entryX=0.5;entryY=0;entryDx=0;entryDy=0;" edge="1" parent="1" source="o17EKEYWWQqzqoGE3UeF-46" target="o17EKEYWWQqzqoGE3UeF-23">
          <mxGeometry width="50" height="50" relative="1" as="geometry">
            <mxPoint x="-1360" y="950" as="sourcePoint" />
            <mxPoint x="-1310" y="900" as="targetPoint" />
            <Array as="points">
              <mxPoint x="-655" y="1450" />
            </Array>
          </mxGeometry>
        </mxCell>
        <mxCell id="o17EKEYWWQqzqoGE3UeF-51" value="" style="endArrow=classic;html=1;rounded=0;exitX=1;exitY=0.5;exitDx=0;exitDy=0;entryX=0.5;entryY=1;entryDx=0;entryDy=0;" edge="1" parent="1" source="o17EKEYWWQqzqoGE3UeF-33" target="o17EKEYWWQqzqoGE3UeF-23">
          <mxGeometry width="50" height="50" relative="1" as="geometry">
            <mxPoint x="-1260" y="990" as="sourcePoint" />
            <mxPoint x="-1210" y="940" as="targetPoint" />
            <Array as="points">
              <mxPoint x="-655" y="1890" />
            </Array>
          </mxGeometry>
        </mxCell>
        <mxCell id="o17EKEYWWQqzqoGE3UeF-52" value="" style="endArrow=classic;html=1;rounded=0;exitX=0.5;exitY=1;exitDx=0;exitDy=0;entryX=0.5;entryY=0;entryDx=0;entryDy=0;" edge="1" parent="1" source="o17EKEYWWQqzqoGE3UeF-9" target="o17EKEYWWQqzqoGE3UeF-24">
          <mxGeometry width="50" height="50" relative="1" as="geometry">
            <mxPoint x="-2440" y="1010" as="sourcePoint" />
            <mxPoint x="-2390" y="960" as="targetPoint" />
          </mxGeometry>
        </mxCell>
        <mxCell id="o17EKEYWWQqzqoGE3UeF-64" style="edgeStyle=orthogonalEdgeStyle;rounded=0;orthogonalLoop=1;jettySize=auto;html=1;" edge="1" parent="1" source="o17EKEYWWQqzqoGE3UeF-55" target="o17EKEYWWQqzqoGE3UeF-58">
          <mxGeometry relative="1" as="geometry" />
        </mxCell>
        <mxCell id="o17EKEYWWQqzqoGE3UeF-55" value="&lt;font style=&quot;font-size: 24px;&quot;&gt;PromptManager&lt;/font&gt;&lt;div&gt;&lt;font style=&quot;font-size: 24px;&quot;&gt;&lt;i&gt;Construst Prompt&lt;/i&gt;&lt;/font&gt;&lt;/div&gt;" style="rounded=1;whiteSpace=wrap;html=1;fillColor=#0050ef;fontColor=#ffffff;strokeColor=#001DBC;" vertex="1" parent="1">
          <mxGeometry x="-940" y="2390" width="425" height="180" as="geometry" />
        </mxCell>
        <mxCell id="o17EKEYWWQqzqoGE3UeF-65" style="edgeStyle=orthogonalEdgeStyle;rounded=0;orthogonalLoop=1;jettySize=auto;html=1;entryX=0.75;entryY=0;entryDx=0;entryDy=0;" edge="1" parent="1" source="o17EKEYWWQqzqoGE3UeF-56" target="o17EKEYWWQqzqoGE3UeF-58">
          <mxGeometry relative="1" as="geometry" />
        </mxCell>
        <mxCell id="o17EKEYWWQqzqoGE3UeF-56" value="&lt;font style=&quot;font-size: 24px;&quot;&gt;ContextManager&lt;/font&gt;" style="rounded=1;whiteSpace=wrap;html=1;fillColor=#0050ef;fontColor=#ffffff;strokeColor=#001DBC;" vertex="1" parent="1">
          <mxGeometry x="-160" y="2391" width="425" height="180" as="geometry" />
        </mxCell>
        <mxCell id="o17EKEYWWQqzqoGE3UeF-63" style="edgeStyle=orthogonalEdgeStyle;rounded=0;orthogonalLoop=1;jettySize=auto;html=1;entryX=0;entryY=0.5;entryDx=0;entryDy=0;" edge="1" parent="1" source="o17EKEYWWQqzqoGE3UeF-57" target="o17EKEYWWQqzqoGE3UeF-58">
          <mxGeometry relative="1" as="geometry" />
        </mxCell>
        <mxCell id="o17EKEYWWQqzqoGE3UeF-57" value="&lt;font style=&quot;font-size: 24px;&quot;&gt;TaskManager&lt;/font&gt;&lt;div&gt;&lt;font style=&quot;font-size: 24px;&quot;&gt;Discover Tasks&lt;/font&gt;&lt;/div&gt;" style="rounded=1;whiteSpace=wrap;html=1;fillColor=#0050ef;fontColor=#ffffff;strokeColor=#001DBC;" vertex="1" parent="1">
          <mxGeometry x="-960" y="2970" width="425" height="180" as="geometry" />
        </mxCell>
        <mxCell id="o17EKEYWWQqzqoGE3UeF-58" value="&lt;font style=&quot;font-size: 24px;&quot;&gt;ChainRunner&lt;/font&gt;&lt;div&gt;&lt;font style=&quot;font-size: 24px;&quot;&gt;Runs Chain&lt;/font&gt;&lt;/div&gt;" style="rounded=1;whiteSpace=wrap;html=1;fillColor=#0050ef;fontColor=#ffffff;strokeColor=#001DBC;" vertex="1" parent="1">
          <mxGeometry x="-550" y="3210" width="425" height="180" as="geometry" />
        </mxCell>
        <mxCell id="o17EKEYWWQqzqoGE3UeF-69" style="edgeStyle=orthogonalEdgeStyle;rounded=0;orthogonalLoop=1;jettySize=auto;html=1;entryX=0.25;entryY=1;entryDx=0;entryDy=0;" edge="1" parent="1" source="o17EKEYWWQqzqoGE3UeF-68" target="o17EKEYWWQqzqoGE3UeF-58">
          <mxGeometry relative="1" as="geometry" />
        </mxCell>
        <mxCell id="o17EKEYWWQqzqoGE3UeF-68" value="&lt;font style=&quot;font-size: 24px;&quot;&gt;RagManager&lt;/font&gt;" style="rounded=1;whiteSpace=wrap;html=1;fillColor=#6a00ff;fontColor=#ffffff;strokeColor=#3700CC;" vertex="1" parent="1">
          <mxGeometry x="490" y="3700" width="440" height="180" as="geometry" />
        </mxCell>
      </root>
    </mxGraphModel>
  </diagram>
  <diagram id="xGa5T99fhPdQLayyvQK0" name="BirdView">
    <mxGraphModel dx="5804" dy="2406" grid="1" gridSize="10" guides="1" tooltips="1" connect="1" arrows="1" fold="1" page="0" pageScale="1" pageWidth="850" pageHeight="1100" math="0" shadow="0">
      <root>
        <mxCell id="0" />
        <mxCell id="1" parent="0" />
        <mxCell id="tMSZsrp7-61a2zZld8nB-1" value="" style="rounded=1;whiteSpace=wrap;html=1;fillColor=#dae8fc;strokeColor=#6c8ebf;arcSize=4;" vertex="1" parent="1">
          <mxGeometry x="290" y="160" width="2430" height="343" as="geometry" />
        </mxCell>
        <mxCell id="tMSZsrp7-61a2zZld8nB-2" value="&lt;font style=&quot;font-size: 36px;&quot;&gt;User Interface Layer&lt;/font&gt;" style="text;html=1;align=center;verticalAlign=middle;whiteSpace=wrap;rounded=0;" vertex="1" parent="1">
          <mxGeometry x="1246" y="190" width="414" height="46" as="geometry" />
        </mxCell>
        <mxCell id="tMSZsrp7-61a2zZld8nB-3" value="&lt;font style=&quot;font-size: 24px;&quot;&gt;Tauri Desktop UI&lt;/font&gt;" style="rounded=1;whiteSpace=wrap;html=1;fillColor=#d5e8d4;strokeColor=#82b366;" vertex="1" parent="1">
          <mxGeometry x="330" y="270" width="315" height="198" as="geometry" />
        </mxCell>
        <mxCell id="tMSZsrp7-61a2zZld8nB-4" value="&lt;font style=&quot;font-size: 24px;&quot;&gt;CLI Interface&lt;/font&gt;" style="rounded=1;whiteSpace=wrap;html=1;fillColor=#d5e8d4;strokeColor=#82b366;" vertex="1" parent="1">
          <mxGeometry x="780" y="270" width="315" height="198" as="geometry" />
        </mxCell>
        <mxCell id="tMSZsrp7-61a2zZld8nB-5" value="&lt;font style=&quot;font-size: 24px;&quot;&gt;System Tray&lt;/font&gt;" style="rounded=1;whiteSpace=wrap;html=1;fillColor=#d5e8d4;strokeColor=#82b366;" vertex="1" parent="1">
          <mxGeometry x="1292.5" y="270" width="315" height="198" as="geometry" />
        </mxCell>
        <mxCell id="tMSZsrp7-61a2zZld8nB-6" value="&lt;font style=&quot;font-size: 24px;&quot;&gt;Hotkey Handler&lt;/font&gt;" style="rounded=1;whiteSpace=wrap;html=1;fillColor=#d5e8d4;strokeColor=#82b366;" vertex="1" parent="1">
          <mxGeometry x="1860" y="263" width="315" height="198" as="geometry" />
        </mxCell>
        <mxCell id="tMSZsrp7-61a2zZld8nB-7" value="&lt;font style=&quot;font-size: 24px;&quot;&gt;Notification&lt;/font&gt;" style="rounded=1;whiteSpace=wrap;html=1;fillColor=#d5e8d4;strokeColor=#82b366;" vertex="1" parent="1">
          <mxGeometry x="2380" y="263" width="315" height="198" as="geometry" />
        </mxCell>
        <mxCell id="tMSZsrp7-61a2zZld8nB-8" value="" style="rounded=1;whiteSpace=wrap;html=1;fillColor=#b1ddf0;strokeColor=#10739e;arcSize=2;" vertex="1" parent="1">
          <mxGeometry x="290" y="640" width="2430" height="360" as="geometry" />
        </mxCell>
        <mxCell id="tMSZsrp7-61a2zZld8nB-9" value="&lt;font style=&quot;font-size: 36px;&quot;&gt;FastAPI Gateway router&lt;/font&gt;" style="text;html=1;align=center;verticalAlign=middle;whiteSpace=wrap;rounded=0;" vertex="1" parent="1">
          <mxGeometry x="1280" y="670" width="414" height="46" as="geometry" />
        </mxCell>
        <mxCell id="tMSZsrp7-61a2zZld8nB-10" value="&lt;font style=&quot;font-size: 24px;&quot;&gt;Katalepsis Monitor&lt;/font&gt;&lt;div&gt;&lt;span style=&quot;font-size: 24px;&quot;&gt;(Singleton)&lt;/span&gt;&lt;/div&gt;&lt;div&gt;&lt;span style=&quot;font-size: 24px;&quot;&gt;As a decoration some task&lt;/span&gt;&lt;/div&gt;" style="rounded=1;whiteSpace=wrap;html=1;fillColor=#d0cee2;strokeColor=#56517e;" vertex="1" parent="1">
          <mxGeometry x="340" y="770" width="315" height="198" as="geometry" />
        </mxCell>
        <mxCell id="tMSZsrp7-61a2zZld8nB-11" value="&lt;span style=&quot;font-size: 24px;&quot;&gt;JobScheduler&lt;/span&gt;" style="rounded=1;whiteSpace=wrap;html=1;fillColor=#d0cee2;strokeColor=#56517e;" vertex="1" parent="1">
          <mxGeometry x="1329.5" y="762" width="315" height="198" as="geometry" />
        </mxCell>
        <mxCell id="tMSZsrp7-61a2zZld8nB-12" value="&lt;span style=&quot;font-size: 24px;&quot;&gt;WebSocket&lt;/span&gt;" style="rounded=1;whiteSpace=wrap;html=1;fillColor=#d0cee2;strokeColor=#56517e;" vertex="1" parent="1">
          <mxGeometry x="2360" y="762" width="315" height="198" as="geometry" />
        </mxCell>
        <mxCell id="tMSZsrp7-61a2zZld8nB-13" value="" style="endArrow=classic;html=1;rounded=0;entryX=0.502;entryY=-0.007;entryDx=0;entryDy=0;entryPerimeter=0;startSize=9;strokeWidth=4;" edge="1" parent="1" target="tMSZsrp7-61a2zZld8nB-8">
          <mxGeometry width="50" height="50" relative="1" as="geometry">
            <mxPoint x="1510" y="505" as="sourcePoint" />
            <mxPoint x="1860" y="652" as="targetPoint" />
          </mxGeometry>
        </mxCell>
        <mxCell id="w9T6oNtNtOyAwDot--YJ-1" value="" style="rounded=1;whiteSpace=wrap;html=1;fillColor=#b0e3e6;strokeColor=#0e8088;arcSize=2;" vertex="1" parent="1">
          <mxGeometry x="290" y="1162" width="2430" height="940" as="geometry" />
        </mxCell>
        <mxCell id="w9T6oNtNtOyAwDot--YJ-2" value="&lt;font style=&quot;font-size: 36px;&quot;&gt;Praxis&lt;/font&gt;&lt;div&gt;&lt;font style=&quot;font-size: 36px;&quot;&gt;&lt;i&gt;Python Backend&lt;/i&gt;&lt;/font&gt;&lt;/div&gt;" style="text;html=1;align=center;verticalAlign=middle;whiteSpace=wrap;rounded=0;" vertex="1" parent="1">
          <mxGeometry x="1140" y="1190" width="770" height="110" as="geometry" />
        </mxCell>
        <mxCell id="Smta2i3Z5xPnl7pU7uNk-8" style="edgeStyle=orthogonalEdgeStyle;rounded=0;orthogonalLoop=1;jettySize=auto;html=1;exitX=1;exitY=0.5;exitDx=0;exitDy=0;" edge="1" parent="1" source="w9T6oNtNtOyAwDot--YJ-3" target="Smta2i3Z5xPnl7pU7uNk-1">
          <mxGeometry relative="1" as="geometry" />
        </mxCell>
        <mxCell id="w9T6oNtNtOyAwDot--YJ-3" value="&lt;font style=&quot;font-size: 36px;&quot;&gt;AtaraxAI Orchestrator&lt;/font&gt;" style="rounded=1;whiteSpace=wrap;html=1;fillColor=#fad9d5;strokeColor=#ae4132;" vertex="1" parent="1">
          <mxGeometry x="1095" y="1450" width="610" height="470" as="geometry" />
        </mxCell>
        <mxCell id="Smta2i3Z5xPnl7pU7uNk-2" style="edgeStyle=orthogonalEdgeStyle;rounded=0;orthogonalLoop=1;jettySize=auto;html=1;entryX=0;entryY=0.25;entryDx=0;entryDy=0;" edge="1" parent="1" source="0x4UNLLY4oC97g_wwr05-1" target="w9T6oNtNtOyAwDot--YJ-3">
          <mxGeometry relative="1" as="geometry" />
        </mxCell>
        <mxCell id="0x4UNLLY4oC97g_wwr05-1" value="&lt;font style=&quot;font-size: 36px;&quot;&gt;AppSettings&lt;/font&gt;" style="rounded=1;whiteSpace=wrap;html=1;fillColor=#b1ddf0;strokeColor=#10739e;" vertex="1" parent="1">
          <mxGeometry x="320" y="1499" width="480" height="140" as="geometry" />
        </mxCell>
        <mxCell id="Smta2i3Z5xPnl7pU7uNk-3" style="edgeStyle=orthogonalEdgeStyle;rounded=0;orthogonalLoop=1;jettySize=auto;html=1;entryX=0;entryY=0.75;entryDx=0;entryDy=0;" edge="1" parent="1" source="0x4UNLLY4oC97g_wwr05-2" target="w9T6oNtNtOyAwDot--YJ-3">
          <mxGeometry relative="1" as="geometry" />
        </mxCell>
        <mxCell id="0x4UNLLY4oC97g_wwr05-2" value="&lt;font style=&quot;font-size: 36px;&quot;&gt;SetupManager&lt;/font&gt;" style="rounded=1;whiteSpace=wrap;html=1;fillColor=#b1ddf0;strokeColor=#10739e;" vertex="1" parent="1">
          <mxGeometry x="320" y="1738" width="490" height="130" as="geometry" />
        </mxCell>
        <mxCell id="Smta2i3Z5xPnl7pU7uNk-1" value="&lt;font style=&quot;font-size: 36px;&quot;&gt;Services&lt;/font&gt;" style="rounded=1;whiteSpace=wrap;html=1;fillColor=#bac8d3;strokeColor=#23445d;" vertex="1" parent="1">
          <mxGeometry x="2075" y="1456" width="600" height="460" as="geometry" />
        </mxCell>
        <mxCell id="Smta2i3Z5xPnl7pU7uNk-12" style="edgeStyle=orthogonalEdgeStyle;rounded=0;orthogonalLoop=1;jettySize=auto;html=1;entryX=1;entryY=0.5;entryDx=0;entryDy=0;" edge="1" parent="1" source="Smta2i3Z5xPnl7pU7uNk-9" target="Smta2i3Z5xPnl7pU7uNk-11">
          <mxGeometry relative="1" as="geometry" />
        </mxCell>
        <mxCell id="Smta2i3Z5xPnl7pU7uNk-9" value="" style="rounded=1;whiteSpace=wrap;html=1;arcSize=1;fillColor=#ffe6cc;strokeColor=#d79b00;" vertex="1" parent="1">
          <mxGeometry x="3450" y="1162" width="1220" height="940" as="geometry" />
        </mxCell>
        <mxCell id="Smta2i3Z5xPnl7pU7uNk-10" value="&lt;span style=&quot;font-size: 36px;&quot;&gt;Hegemonikon&lt;/span&gt;&lt;div&gt;&lt;span style=&quot;font-size: 36px;&quot;&gt;&lt;i&gt;C++ Backend&lt;/i&gt;&lt;/span&gt;&lt;/div&gt;" style="text;html=1;align=center;verticalAlign=middle;whiteSpace=wrap;rounded=0;" vertex="1" parent="1">
          <mxGeometry x="3690" y="1180" width="770" height="110" as="geometry" />
        </mxCell>
        <mxCell id="Smta2i3Z5xPnl7pU7uNk-13" style="edgeStyle=orthogonalEdgeStyle;rounded=0;orthogonalLoop=1;jettySize=auto;html=1;entryX=1;entryY=0.5;entryDx=0;entryDy=0;" edge="1" parent="1" source="Smta2i3Z5xPnl7pU7uNk-11" target="w9T6oNtNtOyAwDot--YJ-1">
          <mxGeometry relative="1" as="geometry" />
        </mxCell>
        <mxCell id="Smta2i3Z5xPnl7pU7uNk-11" value="&lt;font style=&quot;font-size: 36px;&quot;&gt;PyBind11&lt;/font&gt;" style="rounded=1;whiteSpace=wrap;html=1;arcSize=5;fillColor=#fad7ac;strokeColor=#b46504;" vertex="1" parent="1">
          <mxGeometry x="2950" y="1505" width="290" height="254" as="geometry" />
        </mxCell>
        <mxCell id="Smta2i3Z5xPnl7pU7uNk-14" value="" style="endArrow=classic;html=1;rounded=0;exitX=0.5;exitY=1;exitDx=0;exitDy=0;entryX=0.5;entryY=0;entryDx=0;entryDy=0;strokeWidth=4;" edge="1" parent="1" source="tMSZsrp7-61a2zZld8nB-8" target="w9T6oNtNtOyAwDot--YJ-1">
          <mxGeometry width="50" height="50" relative="1" as="geometry">
            <mxPoint x="2270" y="1190" as="sourcePoint" />
            <mxPoint x="2320" y="1140" as="targetPoint" />
          </mxGeometry>
        </mxCell>
        <mxCell id="SK-KX-ZSEMt8VwlfBzd0-1" value="&lt;font style=&quot;font-size: 24px;&quot;&gt;Advanced C++ Memory locking&lt;/font&gt;&lt;div&gt;&lt;font style=&quot;font-size: 24px;&quot;&gt;(SecureString, SecureKey, Argon2)&lt;/font&gt;&lt;/div&gt;" style="rounded=1;whiteSpace=wrap;html=1;fillColor=#e1d5e7;strokeColor=#9673a6;" vertex="1" parent="1">
          <mxGeometry x="3490" y="1390" width="490" height="270" as="geometry" />
        </mxCell>
        <mxCell id="SK-KX-ZSEMt8VwlfBzd0-2" value="&lt;span style=&quot;font-size: 24px;&quot;&gt;CoreAIService&amp;nbsp;&lt;/span&gt;&lt;div&gt;&lt;span style=&quot;font-size: 24px;&quot;&gt;(Llama.cpp, whisper.cpp)&lt;/span&gt;&lt;/div&gt;" style="rounded=1;whiteSpace=wrap;html=1;fillColor=#e1d5e7;strokeColor=#9673a6;" vertex="1" parent="1">
          <mxGeometry x="4160" y="1400" width="490" height="270" as="geometry" />
        </mxCell>
        <mxCell id="SK-KX-ZSEMt8VwlfBzd0-3" value="&lt;span style=&quot;font-size: 24px;&quot;&gt;Benchmarker&lt;/span&gt;" style="rounded=1;whiteSpace=wrap;html=1;fillColor=#e1d5e7;strokeColor=#9673a6;" vertex="1" parent="1">
          <mxGeometry x="3820" y="1790" width="490" height="270" as="geometry" />
        </mxCell>
      </root>
    </mxGraphModel>
  </diagram>
  <diagram id="PDI0Em4xewSzfEQrsbqw" name="Services">
    <mxGraphModel dx="1816" dy="1815" grid="1" gridSize="10" guides="1" tooltips="1" connect="1" arrows="1" fold="1" page="0" pageScale="1" pageWidth="850" pageHeight="1100" math="0" shadow="0">
      <root>
        <mxCell id="0" />
        <mxCell id="1" parent="0" />
        <mxCell id="_XguyNT6F1LdexQE8PDH-1" value="&lt;font style=&quot;font-size: 24px;&quot;&gt;Vault Manager&lt;/font&gt;" style="rounded=1;whiteSpace=wrap;html=1;fillColor=#d80073;strokeColor=#A50040;fontColor=#ffffff;" vertex="1" parent="1">
          <mxGeometry x="-320" y="50" width="2110" height="180" as="geometry" />
        </mxCell>
        <mxCell id="_XguyNT6F1LdexQE8PDH-2" style="edgeStyle=orthogonalEdgeStyle;rounded=0;orthogonalLoop=1;jettySize=auto;html=1;exitX=0;exitY=0.5;exitDx=0;exitDy=0;" edge="1" parent="1" source="_XguyNT6F1LdexQE8PDH-3" target="_XguyNT6F1LdexQE8PDH-20">
          <mxGeometry relative="1" as="geometry" />
        </mxCell>
        <mxCell id="_XguyNT6F1LdexQE8PDH-3" value="&lt;font style=&quot;font-size: 24px;&quot;&gt;CoreAIServiceManager&lt;/font&gt;&lt;div&gt;&lt;font style=&quot;font-size: 24px;&quot;&gt;&lt;i&gt;Load/Unload/Benchmark&lt;/i&gt;&lt;/font&gt;&lt;/div&gt;" style="rounded=1;whiteSpace=wrap;html=1;fillColor=#f8cecc;strokeColor=#b85450;" vertex="1" parent="1">
          <mxGeometry x="870" y="1700" width="490" height="180" as="geometry" />
        </mxCell>
        <mxCell id="_XguyNT6F1LdexQE8PDH-5" value="&lt;font style=&quot;font-size: 24px;&quot;&gt;AppDirectories&lt;/font&gt;" style="rounded=1;whiteSpace=wrap;html=1;fillColor=#fad9d5;strokeColor=#ae4132;" vertex="1" parent="1">
          <mxGeometry x="-320" y="-270" width="425" height="180" as="geometry" />
        </mxCell>
        <mxCell id="_XguyNT6F1LdexQE8PDH-6" value="&lt;font style=&quot;font-size: 24px;&quot;&gt;AppConfig&lt;/font&gt;" style="rounded=1;whiteSpace=wrap;html=1;fillColor=#d0cee2;strokeColor=#56517e;" vertex="1" parent="1">
          <mxGeometry x="1340" y="-260" width="425" height="180" as="geometry" />
        </mxCell>
        <mxCell id="_XguyNT6F1LdexQE8PDH-7" value="&lt;font style=&quot;font-size: 24px;&quot;&gt;ChatManager&lt;/font&gt;&lt;div&gt;&lt;font style=&quot;font-size: 24px;&quot;&gt;Create Project, Sessions&lt;/font&gt;&lt;/div&gt;" style="rounded=1;whiteSpace=wrap;html=1;fillColor=#ffe6cc;strokeColor=#d79b00;" vertex="1" parent="1">
          <mxGeometry x="1330" y="610" width="425" height="180" as="geometry" />
        </mxCell>
        <mxCell id="_XguyNT6F1LdexQE8PDH-8" value="&lt;font style=&quot;font-size: 24px;&quot;&gt;ConfigurationManager&lt;/font&gt;&lt;div&gt;&lt;font style=&quot;font-size: 24px;&quot;&gt;&lt;i&gt;Update Configurations&lt;/i&gt;&lt;/font&gt;&lt;/div&gt;" style="rounded=1;whiteSpace=wrap;html=1;fillColor=#1ba1e2;fontColor=#ffffff;strokeColor=#006EAF;" vertex="1" parent="1">
          <mxGeometry x="-320" y="330" width="425" height="180" as="geometry" />
        </mxCell>
        <mxCell id="_XguyNT6F1LdexQE8PDH-9" value="&lt;font style=&quot;font-size: 24px;&quot;&gt;AtaraxAILogger&lt;/font&gt;" style="rounded=1;whiteSpace=wrap;html=1;fillColor=#b0e3e6;strokeColor=#0e8088;" vertex="1" parent="1">
          <mxGeometry x="480" y="-270" width="425" height="180" as="geometry" />
        </mxCell>
        <mxCell id="_XguyNT6F1LdexQE8PDH-10" style="edgeStyle=orthogonalEdgeStyle;rounded=0;orthogonalLoop=1;jettySize=auto;html=1;" edge="1" parent="1" source="_XguyNT6F1LdexQE8PDH-11" target="_XguyNT6F1LdexQE8PDH-20">
          <mxGeometry relative="1" as="geometry" />
        </mxCell>
        <mxCell id="_XguyNT6F1LdexQE8PDH-11" value="&lt;font style=&quot;font-size: 24px;&quot;&gt;ChatContextManager&lt;/font&gt;" style="rounded=1;whiteSpace=wrap;html=1;fillColor=#dae8fc;strokeColor=#6c8ebf;" vertex="1" parent="1">
          <mxGeometry x="1200" y="1220" width="425" height="180" as="geometry" />
        </mxCell>
        <mxCell id="_XguyNT6F1LdexQE8PDH-13" value="&lt;font style=&quot;font-size: 24px;&quot;&gt;ModelsManager&lt;/font&gt;&lt;div&gt;&lt;span style=&quot;font-size: 24px;&quot;&gt;&lt;i&gt;Manage Local Models, download from HF, Update Models Manifest&lt;/i&gt;&lt;/span&gt;&lt;/div&gt;" style="rounded=1;whiteSpace=wrap;html=1;fillColor=#f8cecc;strokeColor=#b85450;" vertex="1" parent="1">
          <mxGeometry x="880" y="2040" width="480" height="180" as="geometry" />
        </mxCell>
        <mxCell id="_XguyNT6F1LdexQE8PDH-14" style="edgeStyle=orthogonalEdgeStyle;rounded=0;orthogonalLoop=1;jettySize=auto;html=1;" edge="1" parent="1" source="_XguyNT6F1LdexQE8PDH-15" target="_XguyNT6F1LdexQE8PDH-20">
          <mxGeometry relative="1" as="geometry" />
        </mxCell>
        <mxCell id="_XguyNT6F1LdexQE8PDH-15" value="&lt;font style=&quot;font-size: 24px;&quot;&gt;PromptManager&lt;/font&gt;&lt;div&gt;&lt;font style=&quot;font-size: 24px;&quot;&gt;&lt;i&gt;Construst Prompt&lt;/i&gt;&lt;/font&gt;&lt;/div&gt;" style="rounded=1;whiteSpace=wrap;html=1;fillColor=#dae8fc;strokeColor=#6c8ebf;" vertex="1" parent="1">
          <mxGeometry x="-200" y="830" width="425" height="180" as="geometry" />
        </mxCell>
        <mxCell id="_XguyNT6F1LdexQE8PDH-16" style="edgeStyle=orthogonalEdgeStyle;rounded=0;orthogonalLoop=1;jettySize=auto;html=1;entryX=0.75;entryY=0;entryDx=0;entryDy=0;" edge="1" parent="1" source="_XguyNT6F1LdexQE8PDH-17" target="_XguyNT6F1LdexQE8PDH-20">
          <mxGeometry relative="1" as="geometry" />
        </mxCell>
        <mxCell id="_XguyNT6F1LdexQE8PDH-17" value="&lt;font style=&quot;font-size: 24px;&quot;&gt;ContextManager&lt;/font&gt;" style="rounded=1;whiteSpace=wrap;html=1;fillColor=#dae8fc;strokeColor=#6c8ebf;" vertex="1" parent="1">
          <mxGeometry x="670" y="610" width="425" height="180" as="geometry" />
        </mxCell>
        <mxCell id="_XguyNT6F1LdexQE8PDH-18" style="edgeStyle=orthogonalEdgeStyle;rounded=0;orthogonalLoop=1;jettySize=auto;html=1;entryX=0;entryY=0.5;entryDx=0;entryDy=0;" edge="1" parent="1" source="_XguyNT6F1LdexQE8PDH-19" target="_XguyNT6F1LdexQE8PDH-20">
          <mxGeometry relative="1" as="geometry" />
        </mxCell>
        <mxCell id="_XguyNT6F1LdexQE8PDH-19" value="&lt;font style=&quot;font-size: 24px;&quot;&gt;TaskManager&lt;/font&gt;&lt;div&gt;&lt;font style=&quot;font-size: 24px;&quot;&gt;Discover Tasks&lt;/font&gt;&lt;/div&gt;" style="rounded=1;whiteSpace=wrap;html=1;fillColor=#dae8fc;strokeColor=#6c8ebf;" vertex="1" parent="1">
          <mxGeometry x="-320" y="1160" width="425" height="180" as="geometry" />
        </mxCell>
        <mxCell id="_XguyNT6F1LdexQE8PDH-20" value="&lt;font style=&quot;font-size: 24px;&quot;&gt;ChainRunner (async)&lt;/font&gt;&lt;div&gt;&lt;font style=&quot;font-size: 24px;&quot;&gt;Runs Chain&lt;/font&gt;&lt;/div&gt;" style="rounded=1;whiteSpace=wrap;html=1;fillColor=#d5e8d4;strokeColor=#82b366;" vertex="1" parent="1">
          <mxGeometry x="410" y="1270" width="425" height="180" as="geometry" />
        </mxCell>
        <mxCell id="_XguyNT6F1LdexQE8PDH-21" style="edgeStyle=orthogonalEdgeStyle;rounded=0;orthogonalLoop=1;jettySize=auto;html=1;entryX=0.25;entryY=1;entryDx=0;entryDy=0;" edge="1" parent="1" source="_XguyNT6F1LdexQE8PDH-22" target="_XguyNT6F1LdexQE8PDH-20">
          <mxGeometry relative="1" as="geometry" />
        </mxCell>
        <mxCell id="_XguyNT6F1LdexQE8PDH-22" value="&lt;font style=&quot;font-size: 24px;&quot;&gt;AtaraxAIRagManager&lt;/font&gt;" style="rounded=1;whiteSpace=wrap;html=1;fillColor=#e1d5e7;strokeColor=#9673a6;" vertex="1" parent="1">
          <mxGeometry x="-140" y="1700" width="440" height="180" as="geometry" />
        </mxCell>
      </root>
    </mxGraphModel>
  </diagram>
  <diagram id="G7DofOoltuQYVF9jb5el" name="AtaraxAIRagManager">
    <mxGraphModel dx="3320" dy="2519" grid="1" gridSize="10" guides="1" tooltips="1" connect="1" arrows="1" fold="1" page="0" pageScale="1" pageWidth="850" pageHeight="1100" math="0" shadow="0">
      <root>
        <mxCell id="0" />
        <mxCell id="1" parent="0" />
        <mxCell id="9dLgfklerdwaj6ypfLSk-9" style="edgeStyle=orthogonalEdgeStyle;rounded=0;orthogonalLoop=1;jettySize=auto;html=1;entryX=0.25;entryY=0;entryDx=0;entryDy=0;" edge="1" parent="1" source="9dLgfklerdwaj6ypfLSk-1" target="9dLgfklerdwaj6ypfLSk-8">
          <mxGeometry relative="1" as="geometry" />
        </mxCell>
        <mxCell id="9dLgfklerdwaj6ypfLSk-1" value="&lt;font style=&quot;font-size: 24px;&quot;&gt;AtaraxAIEmbedder&lt;/font&gt;" style="rounded=1;whiteSpace=wrap;html=1;fillColor=#008a00;strokeColor=#005700;fontColor=#ffffff;" vertex="1" parent="1">
          <mxGeometry x="-710" y="-450" width="425" height="180" as="geometry" />
        </mxCell>
        <mxCell id="9dLgfklerdwaj6ypfLSk-10" style="edgeStyle=orthogonalEdgeStyle;rounded=0;orthogonalLoop=1;jettySize=auto;html=1;entryX=0.5;entryY=0;entryDx=0;entryDy=0;" edge="1" parent="1" source="9dLgfklerdwaj6ypfLSk-2" target="9dLgfklerdwaj6ypfLSk-8">
          <mxGeometry relative="1" as="geometry" />
        </mxCell>
        <mxCell id="9dLgfklerdwaj6ypfLSk-2" value="&lt;font style=&quot;font-size: 24px;&quot;&gt;RagStore&lt;/font&gt;" style="rounded=1;whiteSpace=wrap;html=1;fillColor=#1ba1e2;strokeColor=#006EAF;fontColor=#ffffff;" vertex="1" parent="1">
          <mxGeometry x="200" y="-440" width="425" height="180" as="geometry" />
        </mxCell>
        <mxCell id="9dLgfklerdwaj6ypfLSk-11" style="edgeStyle=orthogonalEdgeStyle;rounded=0;orthogonalLoop=1;jettySize=auto;html=1;entryX=0;entryY=0.5;entryDx=0;entryDy=0;" edge="1" parent="1" source="9dLgfklerdwaj6ypfLSk-3" target="9dLgfklerdwaj6ypfLSk-8">
          <mxGeometry relative="1" as="geometry" />
        </mxCell>
        <mxCell id="9dLgfklerdwaj6ypfLSk-3" value="&lt;font style=&quot;font-size: 24px;&quot;&gt;RagManifest&lt;/font&gt;" style="rounded=1;whiteSpace=wrap;html=1;fillColor=#1ba1e2;strokeColor=#006EAF;fontColor=#ffffff;" vertex="1" parent="1">
          <mxGeometry x="-1210" y="70" width="425" height="180" as="geometry" />
        </mxCell>
        <mxCell id="9dLgfklerdwaj6ypfLSk-17" style="edgeStyle=orthogonalEdgeStyle;rounded=0;orthogonalLoop=1;jettySize=auto;html=1;entryX=0;entryY=0.5;entryDx=0;entryDy=0;" edge="1" parent="1" source="9dLgfklerdwaj6ypfLSk-4" target="9dLgfklerdwaj6ypfLSk-7">
          <mxGeometry relative="1" as="geometry" />
        </mxCell>
        <mxCell id="9dLgfklerdwaj6ypfLSk-4" value="&lt;font style=&quot;font-size: 24px;&quot;&gt;SmartChunker&lt;/font&gt;" style="rounded=1;whiteSpace=wrap;html=1;fillColor=#6a00ff;strokeColor=#3700CC;fontColor=#ffffff;" vertex="1" parent="1">
          <mxGeometry x="-410" y="680" width="425" height="180" as="geometry" />
        </mxCell>
        <mxCell id="9dLgfklerdwaj6ypfLSk-16" style="edgeStyle=orthogonalEdgeStyle;rounded=0;orthogonalLoop=1;jettySize=auto;html=1;entryX=1;entryY=0.5;entryDx=0;entryDy=0;" edge="1" parent="1" source="9dLgfklerdwaj6ypfLSk-5" target="9dLgfklerdwaj6ypfLSk-6">
          <mxGeometry relative="1" as="geometry" />
        </mxCell>
        <mxCell id="9dLgfklerdwaj6ypfLSk-5" value="&lt;font style=&quot;font-size: 24px;&quot;&gt;ResilientFileIndexer&lt;/font&gt;&lt;div&gt;&lt;font style=&quot;font-size: 24px;&quot;&gt;&lt;i&gt;Watchdog&amp;nbsp;FileSystemEventHandler&lt;/i&gt;&lt;/font&gt;&lt;/div&gt;" style="rounded=1;whiteSpace=wrap;html=1;fillColor=#a20025;strokeColor=#6F0000;fontColor=#ffffff;" vertex="1" parent="1">
          <mxGeometry x="890" y="570" width="425" height="180" as="geometry" />
        </mxCell>
        <mxCell id="9dLgfklerdwaj6ypfLSk-13" style="edgeStyle=orthogonalEdgeStyle;rounded=0;orthogonalLoop=1;jettySize=auto;html=1;entryX=0.5;entryY=1;entryDx=0;entryDy=0;" edge="1" parent="1" source="9dLgfklerdwaj6ypfLSk-6" target="9dLgfklerdwaj6ypfLSk-8">
          <mxGeometry relative="1" as="geometry" />
        </mxCell>
        <mxCell id="9dLgfklerdwaj6ypfLSk-6" value="&lt;font style=&quot;font-size: 24px;&quot;&gt;RagFileMonitoring&lt;/font&gt;" style="rounded=1;whiteSpace=wrap;html=1;fillColor=#0050ef;strokeColor=#001DBC;fontColor=#ffffff;" vertex="1" parent="1">
          <mxGeometry x="290" y="180" width="425" height="180" as="geometry" />
        </mxCell>
        <mxCell id="9dLgfklerdwaj6ypfLSk-18" style="edgeStyle=orthogonalEdgeStyle;rounded=0;orthogonalLoop=1;jettySize=auto;html=1;entryX=0.5;entryY=1;entryDx=0;entryDy=0;" edge="1" parent="1" source="9dLgfklerdwaj6ypfLSk-7" target="9dLgfklerdwaj6ypfLSk-6">
          <mxGeometry relative="1" as="geometry" />
        </mxCell>
        <mxCell id="9dLgfklerdwaj6ypfLSk-7" value="&lt;font style=&quot;font-size: 24px;&quot;&gt;RagUpdater&lt;/font&gt;&lt;div&gt;&lt;font style=&quot;font-size: 24px;&quot;&gt;&lt;i&gt;Thread Worker&lt;/i&gt;&lt;/font&gt;&lt;/div&gt;" style="rounded=1;whiteSpace=wrap;html=1;fillColor=#d80073;strokeColor=#A50040;fontColor=#ffffff;" vertex="1" parent="1">
          <mxGeometry x="290" y="680" width="425" height="180" as="geometry" />
        </mxCell>
        <mxCell id="9dLgfklerdwaj6ypfLSk-8" value="&lt;font style=&quot;font-size: 24px;&quot;&gt;AtaraxAIRagManager&lt;/font&gt;&lt;div&gt;&lt;font style=&quot;font-size: 24px;&quot;&gt;&lt;i&gt;CrossEncoder, Reranking&lt;/i&gt;&lt;/font&gt;&lt;/div&gt;" style="rounded=1;whiteSpace=wrap;html=1;fillColor=#60a917;strokeColor=#2D7600;fontColor=#ffffff;" vertex="1" parent="1">
          <mxGeometry x="-360" y="-50" width="425" height="180" as="geometry" />
        </mxCell>
      </root>
    </mxGraphModel>
  </diagram>
  <diagram id="ABtYKX1RMWbo9tlNEPyk" name="Page-5">
    <mxGraphModel dx="1604" dy="1603" grid="0" gridSize="10" guides="1" tooltips="1" connect="1" arrows="1" fold="1" page="0" pageScale="1" pageWidth="850" pageHeight="1100" math="0" shadow="0">
      <root>
        <mxCell id="0" />
        <mxCell id="1" parent="0" />
        <mxCell id="J2pNUeb8txcRlVXaDsfr-1" value="" style="rounded=1;whiteSpace=wrap;html=1;arcSize=4;fillColor=#1ba1e2;fontColor=#ffffff;strokeColor=#006EAF;fillStyle=dashed;" vertex="1" parent="1">
          <mxGeometry x="-359" y="-347" width="1124" height="229" as="geometry" />
        </mxCell>
        <mxCell id="J2pNUeb8txcRlVXaDsfr-2" value="&lt;font style=&quot;color: rgb(0, 110, 175); font-size: 24px;&quot;&gt;&lt;b&gt;User Interface Layer&lt;/b&gt;&lt;/font&gt;" style="text;html=1;align=center;verticalAlign=middle;whiteSpace=wrap;rounded=0;" vertex="1" parent="1">
          <mxGeometry x="61" y="-340" width="277" height="30" as="geometry" />
        </mxCell>
        <mxCell id="J2pNUeb8txcRlVXaDsfr-3" value="Desktop UI" style="rounded=1;whiteSpace=wrap;html=1;fillColor=#b0e3e6;strokeColor=#0e8088;" vertex="1" parent="1">
          <mxGeometry x="-340" y="-198" width="120" height="60" as="geometry" />
        </mxCell>
        <mxCell id="J2pNUeb8txcRlVXaDsfr-4" value="CLI Interface" style="rounded=1;whiteSpace=wrap;html=1;fillColor=#b0e3e6;strokeColor=#0e8088;" vertex="1" parent="1">
          <mxGeometry x="-193" y="-196" width="120" height="60" as="geometry" />
        </mxCell>
        <mxCell id="J2pNUeb8txcRlVXaDsfr-5" value="System Tray" style="rounded=1;whiteSpace=wrap;html=1;fillColor=#b0e3e6;strokeColor=#0e8088;" vertex="1" parent="1">
          <mxGeometry x="-45" y="-196" width="120" height="60" as="geometry" />
        </mxCell>
        <mxCell id="J2pNUeb8txcRlVXaDsfr-6" value="Hotkey Handler" style="rounded=1;whiteSpace=wrap;html=1;fillColor=#b0e3e6;strokeColor=#0e8088;" vertex="1" parent="1">
          <mxGeometry x="104" y="-196" width="120" height="60" as="geometry" />
        </mxCell>
        <mxCell id="J2pNUeb8txcRlVXaDsfr-7" value="Status Dashboard" style="rounded=1;whiteSpace=wrap;html=1;fillColor=#fad9d5;strokeColor=#ae4132;" vertex="1" parent="1">
          <mxGeometry x="637" y="-198" width="120" height="60" as="geometry" />
        </mxCell>
        <mxCell id="J2pNUeb8txcRlVXaDsfr-8" value="Ressource Monitor" style="rounded=1;whiteSpace=wrap;html=1;fillColor=#fad9d5;strokeColor=#ae4132;" vertex="1" parent="1">
          <mxGeometry x="490" y="-198" width="120" height="60" as="geometry" />
        </mxCell>
        <mxCell id="J2pNUeb8txcRlVXaDsfr-9" value="" style="rounded=1;whiteSpace=wrap;html=1;arcSize=4;fillColor=#e3c800;fontColor=#000000;strokeColor=#B09500;fillStyle=dashed;" vertex="1" parent="1">
          <mxGeometry x="-362.5" y="-48" width="1382.5" height="229" as="geometry" />
        </mxCell>
        <mxCell id="J2pNUeb8txcRlVXaDsfr-10" value="&lt;font style=&quot;color: rgb(176, 149, 0); font-size: 24px;&quot;&gt;API Gateway &amp;amp; Request Router&lt;/font&gt;" style="text;html=1;align=center;verticalAlign=middle;whiteSpace=wrap;rounded=0;" vertex="1" parent="1">
          <mxGeometry x="11.5" y="-40" width="376" height="30" as="geometry" />
        </mxCell>
        <mxCell id="J2pNUeb8txcRlVXaDsfr-11" value="Request Queue" style="rounded=1;whiteSpace=wrap;html=1;fillColor=#e3c800;strokeColor=#B09500;fontColor=#000000;" vertex="1" parent="1">
          <mxGeometry x="-342" y="98" width="120" height="60" as="geometry" />
        </mxCell>
        <mxCell id="J2pNUeb8txcRlVXaDsfr-12" value="Priority Manager" style="rounded=1;whiteSpace=wrap;html=1;fillColor=#e3c800;strokeColor=#B09500;fontColor=#000000;" vertex="1" parent="1">
          <mxGeometry x="-189" y="98" width="120" height="60" as="geometry" />
        </mxCell>
        <mxCell id="J2pNUeb8txcRlVXaDsfr-13" value="Cirbuit Breaker" style="rounded=1;whiteSpace=wrap;html=1;fillColor=#e3c800;strokeColor=#B09500;fontColor=#000000;" vertex="1" parent="1">
          <mxGeometry x="-19" y="98" width="120" height="60" as="geometry" />
        </mxCell>
        <mxCell id="J2pNUeb8txcRlVXaDsfr-14" value="Rate Limiter" style="rounded=1;whiteSpace=wrap;html=1;fillColor=#e3c800;strokeColor=#B09500;fontColor=#000000;" vertex="1" parent="1">
          <mxGeometry x="151" y="100" width="120" height="60" as="geometry" />
        </mxCell>
        <mxCell id="J2pNUeb8txcRlVXaDsfr-15" value="Error Handler" style="rounded=1;whiteSpace=wrap;html=1;fillColor=#e3c800;strokeColor=#B09500;fontColor=#000000;" vertex="1" parent="1">
          <mxGeometry x="321" y="103" width="120" height="60" as="geometry" />
        </mxCell>
        <mxCell id="J2pNUeb8txcRlVXaDsfr-16" value="" style="rounded=1;whiteSpace=wrap;html=1;arcSize=4;fillColor=#76608a;fontColor=#ffffff;strokeColor=#432D57;fillStyle=dashed;" vertex="1" parent="1">
          <mxGeometry x="-362.5" y="275" width="1124" height="334" as="geometry" />
        </mxCell>
        <mxCell id="J2pNUeb8txcRlVXaDsfr-17" value="&lt;font style=&quot;color: rgb(67, 45, 87); font-size: 24px;&quot;&gt;Core Service Layer&lt;/font&gt;" style="text;html=1;align=center;verticalAlign=middle;whiteSpace=wrap;rounded=0;" vertex="1" parent="1">
          <mxGeometry x="72" y="285" width="212" height="30" as="geometry" />
        </mxCell>
        <mxCell id="GCA-xhVPgXmm4jISF8Eo-1" value="Configuration Manager" style="rounded=1;whiteSpace=wrap;html=1;fillColor=#76608a;strokeColor=#432D57;fontColor=#ffffff;" vertex="1" parent="1">
          <mxGeometry x="-331" y="355" width="148" height="69" as="geometry" />
        </mxCell>
        <mxCell id="GCA-xhVPgXmm4jISF8Eo-2" value="State Manager" style="rounded=1;whiteSpace=wrap;html=1;fillColor=#76608a;strokeColor=#432D57;fontColor=#ffffff;" vertex="1" parent="1">
          <mxGeometry x="-132" y="359" width="148" height="69" as="geometry" />
        </mxCell>
        <mxCell id="GCA-xhVPgXmm4jISF8Eo-3" value="Security Vault" style="rounded=1;whiteSpace=wrap;html=1;fillColor=#76608a;strokeColor=#432D57;fontColor=#ffffff;" vertex="1" parent="1">
          <mxGeometry x="72" y="355" width="148" height="69" as="geometry" />
        </mxCell>
        <mxCell id="GCA-xhVPgXmm4jISF8Eo-4" value="Context Manager" style="rounded=1;whiteSpace=wrap;html=1;fillColor=#76608a;strokeColor=#432D57;fontColor=#ffffff;" vertex="1" parent="1">
          <mxGeometry x="-334" y="507" width="148" height="69" as="geometry" />
        </mxCell>
        <mxCell id="GCA-xhVPgXmm4jISF8Eo-5" value="Prompt Manager" style="rounded=1;whiteSpace=wrap;html=1;fillColor=#76608a;strokeColor=#432D57;fontColor=#ffffff;" vertex="1" parent="1">
          <mxGeometry x="-129" y="505" width="148" height="69" as="geometry" />
        </mxCell>
        <mxCell id="GCA-xhVPgXmm4jISF8Eo-6" value="Chat Manager" style="rounded=1;whiteSpace=wrap;html=1;fillColor=#76608a;strokeColor=#432D57;fontColor=#ffffff;" vertex="1" parent="1">
          <mxGeometry x="76" y="505" width="148" height="69" as="geometry" />
        </mxCell>
        <mxCell id="GCA-xhVPgXmm4jISF8Eo-7" value="AtaraxAI Orchestrator" style="rounded=1;whiteSpace=wrap;html=1;fillColor=#d5e8d4;strokeColor=#82b366;" vertex="1" parent="1">
          <mxGeometry x="258" y="353" width="148" height="69" as="geometry" />
        </mxCell>
        <mxCell id="Q0Q06Yz5OEDEw7PuQcIY-1" value="Processing&amp;nbsp; Pipeline&lt;div&gt;Input -&amp;gt; Preprocessing -&amp;gt; AI Processing -&amp;gt; Post processing -&amp;gt; Output&amp;nbsp;&lt;/div&gt;&lt;div&gt;Error Recover &amp;amp; Fallbacks&lt;/div&gt;" style="rounded=1;whiteSpace=wrap;html=1;fillColor=#d5e8d4;strokeColor=#82b366;" vertex="1" parent="1">
          <mxGeometry x="263" y="505" width="467" height="69" as="geometry" />
        </mxCell>
        <mxCell id="Q0Q06Yz5OEDEw7PuQcIY-2" value="Task Scheduler" style="rounded=1;whiteSpace=wrap;html=1;fillColor=#fad9d5;strokeColor=#ae4132;" vertex="1" parent="1">
          <mxGeometry x="601" y="357.5" width="120" height="60" as="geometry" />
        </mxCell>
      </root>
    </mxGraphModel>
  </diagram>
</mxfile>
